<?xml version="1.0" encoding="UTF-8" standalone="no"?>
<svg
   id="Vector_logo"
   data-name="Vector logo"
   viewBox="0 0 500 500"
   version="1.1"
   sodipodi:docname="h3_bg.svg"
   inkscape:version="1.4.1 (93de688d07, 2025-03-30)"
   inkscape:export-filename="h3_light_bg.png"
   inkscape:export-xdpi="96"
   inkscape:export-ydpi="96"
   width="500"
   height="500"
   xmlns:inkscape="http://www.inkscape.org/namespaces/inkscape"
   xmlns:sodipodi="http://sodipodi.sourceforge.net/DTD/sodipodi-0.dtd"
   xmlns="http://www.w3.org/2000/svg"
   xmlns:svg="http://www.w3.org/2000/svg"
   xmlns:rdf="http://www.w3.org/1999/02/22-rdf-syntax-ns#"
   xmlns:cc="http://creativecommons.org/ns#">
  <sodipodi:namedview
     id="namedview2"
     pagecolor="#323330"
     bordercolor="#000000"
     borderopacity="0.25"
     inkscape:showpageshadow="true"
     inkscape:pageopacity="0.0"
     inkscape:pagecheckerboard="true"
     inkscape:deskcolor="#d1d1d1"
     showgrid="false"
     inkscape:zoom="0.99586844"
     inkscape:cx="-14.560156"
     inkscape:cy="351.95412"
     inkscape:window-width="2560"
     inkscape:window-height="1369"
     inkscape:window-x="0"
     inkscape:window-y="0"
     inkscape:window-maximized="1"
     inkscape:current-layer="Vector_logo"
     showborder="true"
     borderlayer="true"
     labelstyle="default"
     inkscape:antialias-rendering="true"
     inkscape:clip-to-page="false">
    <inkscape:grid
       id="grid2"
       units="px"
       originx="0"
       originy="0"
       spacingx="1"
       spacingy="0.99999996"
       empcolor="#0099e5"
       empopacity="0.30196078"
       color="#0099e5"
       opacity="0.14902"
       empspacing="5"
       enabled="true"
       visible="false" />
  </sodipodi:namedview>
  <defs
     id="defs1">
    <style
       id="style1">.cls-1{fill:#f0db4f;}.cls-2{fill:#fff;}</style>
  </defs>
  <rect
     style="fill:#323330;fill-opacity:1;fill-rule:evenodd"
     id="rect1"
     width="500"
     height="500"
     x="0"
     y="0"
     inkscape:label="bg" />
  <polygon
     class="cls-1"
     points="72.67,467.63 73.91,310.86 104.78,310.64 140.81,256.38 71.27,257.88 70.33,103.97 0,103.97 2.67,467.63 "
     id="polygon1"
     transform="matrix(0.86073391,0,0,0.86073391,27.06444,4.0029393)" />
  <path
     class="cls-2"
     d="m 297.14552,146.09864 19.41816,-52.608067 h 89.98973 c 26.49339,0 75.91673,21.914287 77.79314,74.591207 2.16044,60.74199 -47.85681,77.28529 -47.85681,77.28529 0,0 59.71772,15.03703 55.58619,79.76421 -4.70821,73.82515 -76.60532,81.20164 -83.49119,81.28772 -16.15597,0.20658 -162.38606,0 -162.38606,0 l 33.6633,-49.34588 c 0,0 103.47744,-0.38733 110.75064,-0.38733 7.2732,0 39.39579,-2.10018 39.39579,-43.0367 0,-29.90189 -30.78845,-44.56879 -50.30129,-44.56879 h -36.9427 l 31.36514,-45.51561 c 0,0 27.06148,-2.84042 40.55779,-18.1787 12.61836,-14.33983 19.03082,-57.47981 -32.42384,-59.65747 z"
     id="path1"
     style="stroke-width:0.860734" />
  <path
     class="cls-1"
     d="M 141.35269,270.915 313.49947,6.5750067 c 0,0 12.62696,-17.7913697 4.58771,5.1644043 -8.03926,22.955773 -65.7945,186.495229 -65.7945,186.495229 0,0 -9.29592,21.0019 0.77467,21.0019 10.07058,0 78.9379,-1.22224 82.23451,-1.0587 3.29661,0.16354 16.71545,-2.49613 3.82166,15.68257 L 159.86707,492.59702 c 0,0 -12.72164,17.68808 -5.88741,-1.61818 21.32038,-60.25138 73.76489,-200.27557 73.76489,-200.27557 0,0 6.02513,-11.66294 -10.64728,-11.18954 l -64.83909,0.37873 c 0,0 -17.69668,2.40144 -10.90549,-8.97746 z"
     id="path2"
     style="stroke-width:0.860734" />
  <metadata
     id="metadata1">
    <rdf:RDF>
      <cc:Work
         rdf:about="" />
    </rdf:RDF>
  </metadata>
</svg>
