<svg id="Vector_logo" data-name="Vector logo" xmlns="http://www.w3.org/2000/svg" viewBox="0 0 540.49 580.9"><defs><style>.cls-1{fill:#f0db4f;}.cls-2{fill:#323330;}</style></defs><polygon class="cls-1" points="0 103.97 2.67 467.63 72.67 467.63 73.91 310.86 104.78 310.64 140.81 256.38 71.27 257.88 70.33 103.97 0 103.97"/><path class="cls-2" d="M353,302.23l22.56-61.12H480.11c30.78,0,88.2,25.46,90.38,86.66,2.51,70.57-55.6,89.79-55.6,89.79s69.38,17.47,64.58,92.67c-5.47,85.77-89,94.34-97,94.44-18.77.24-188.66,0-188.66,0l39.11-57.33s120.22-.45,128.67-.45,45.77-2.44,45.77-50c0-34.74-35.77-51.78-58.44-51.78H406l36.44-52.88s31.44-3.3,47.12-21.12c14.66-16.66,22.11-66.78-37.67-69.31Z" transform="translate(-39.22 -137.14)"/><path class="cls-1" d="M172,451.89,372,144.78s14.67-20.67,5.33,6-76.44,216.67-76.44,216.67-10.8,24.4.9,24.4,91.71-1.42,95.54-1.23,19.42-2.9,4.44,18.22L193.51,709.44s-14.78,20.55-6.84-1.88c24.77-70,85.7-232.68,85.7-232.68s7-13.55-12.37-13l-75.33.44S164.11,465.11,172,451.89Z" transform="translate(-39.22 -137.14)"/></svg>